<mxfile host="65bd71144e">
    <diagram id="b-blfYIkdgPZX9wCAae5" name="Page-1">
        <mxGraphModel dx="847" dy="521" grid="1" gridSize="10" guides="1" tooltips="1" connect="1" arrows="1" fold="1" page="0" pageScale="1" pageWidth="827" pageHeight="1169" background="#ffffff" math="0" shadow="0">
            <root>
                <mxCell id="0"/>
                <mxCell id="1" parent="0"/>
                <mxCell id="3" value="" style="rounded=0;whiteSpace=wrap;html=1;fillColor=none;strokeColor=#000000;" parent="1" vertex="1">
                    <mxGeometry x="130" y="158" width="590" height="252" as="geometry"/>
                </mxCell>
                <mxCell id="4" value="ブラウザ" style="html=1;fillColor=#F3EFFA;fontColor=#000000;strokeColor=#000000;" parent="3" vertex="1">
                    <mxGeometry x="29.01639344262295" y="16.8" width="113.56049180327868" height="213.2" as="geometry"/>
                </mxCell>
                <mxCell id="76" value="Express&lt;br&gt;(TypeScript)" style="html=1;fillColor=#F3EFFA;fontColor=#000000;strokeColor=#000000;" parent="3" vertex="1">
                    <mxGeometry x="319.18032786885243" y="16.8" width="113.56049180327868" height="213.2" as="geometry"/>
                </mxCell>
                <mxCell id="77" value="" style="endArrow=classic;dashed=1;html=1;dashPattern=1 3;strokeWidth=2;fontColor=#000000;entryX=0.012;entryY=0.062;entryDx=0;entryDy=0;exitX=1;exitY=0.25;exitDx=0;exitDy=0;strokeColor=#000000;endFill=1;entryPerimeter=0;" parent="3" edge="1" target="76">
                    <mxGeometry width="50" height="50" relative="1" as="geometry">
                        <mxPoint x="142.5768852459016" y="29.4" as="sourcePoint"/>
                        <mxPoint x="232.1311475409836" y="29.399999999999903" as="targetPoint"/>
                    </mxGeometry>
                </mxCell>
                <mxCell id="112" value="サーバサイドは&lt;br&gt;ブラウザからの通信で&lt;br&gt;ひっくり返すと指定された&lt;br&gt;石の情報を保存" style="text;html=1;strokeColor=none;fillColor=none;align=left;verticalAlign=middle;whiteSpace=wrap;rounded=0;fontColor=#000000;" parent="3" vertex="1">
                    <mxGeometry x="435.24590163934425" y="33.6" width="145.08196721311475" height="86.4" as="geometry"/>
                </mxCell>
                <mxCell id="114" value="ブラウザ上の&lt;br&gt;JavaScript で&lt;br&gt;ひっくり返す石を&lt;br&gt;判断して&lt;br&gt;サーバサイドに送信" style="text;html=1;strokeColor=none;fillColor=none;align=left;verticalAlign=middle;whiteSpace=wrap;rounded=0;fontColor=#000000;" vertex="1" parent="3">
                    <mxGeometry x="154.75409836065575" y="42" width="145.08196721311475" height="88" as="geometry"/>
                </mxCell>
                <mxCell id="97" value="" style="endArrow=classic;dashed=1;html=1;dashPattern=1 3;strokeWidth=2;fontColor=#000000;exitX=0;exitY=0.789;exitDx=0;exitDy=0;strokeColor=#000000;endFill=1;exitPerimeter=0;" parent="1" edge="1">
                    <mxGeometry width="50" height="50" relative="1" as="geometry">
                        <mxPoint x="440" y="363.0147999999999" as="sourcePoint"/>
                        <mxPoint x="270" y="363" as="targetPoint"/>
                    </mxGeometry>
                </mxCell>
                <mxCell id="17" value="Untitled Layer" parent="0"/>
                <mxCell id="26" value="Untitled Layer" parent="0"/>
            </root>
        </mxGraphModel>
    </diagram>
</mxfile>